%TF.GenerationSoftware,KiCad,Pcbnew,10.0.1*%
%TF.CreationDate,2026-04-28T09:53:27+02:00*%
%TF.ProjectId,FarmGameV2,4661726d-4761-46d6-9556-322e6b696361,rev?*%
%TF.SameCoordinates,Original*%
%TF.FileFunction,Soldermask,Bot*%
%TF.FilePolarity,Negative*%
%FSLAX46Y46*%
G04 Gerber Fmt 4.6, Leading zero omitted, Abs format (unit mm)*
G04 Created by KiCad (PCBNEW 10.0.1) date 2026-04-28 09:53:27*
%MOMM*%
%LPD*%
G01*
G04 APERTURE LIST*
G04 Aperture macros list*
%AMRoundRect*
0 Rectangle with rounded corners*
0 $1 Rounding radius*
0 $2 $3 $4 $5 $6 $7 $8 $9 X,Y pos of 4 corners*
0 Add a 4 corners polygon primitive as box body*
4,1,4,$2,$3,$4,$5,$6,$7,$8,$9,$2,$3,0*
0 Add four circle primitives for the rounded corners*
1,1,$1+$1,$2,$3*
1,1,$1+$1,$4,$5*
1,1,$1+$1,$6,$7*
1,1,$1+$1,$8,$9*
0 Add four rect primitives between the rounded corners*
20,1,$1+$1,$2,$3,$4,$5,0*
20,1,$1+$1,$4,$5,$6,$7,0*
20,1,$1+$1,$6,$7,$8,$9,0*
20,1,$1+$1,$8,$9,$2,$3,0*%
%AMRotRect*
0 Rectangle, with rotation*
0 The origin of the aperture is its center*
0 $1 length*
0 $2 width*
0 $3 Rotation angle, in degrees counterclockwise*
0 Add horizontal line*
21,1,$1,$2,0,0,$3*%
G04 Aperture macros list end*
%ADD10C,2.000000*%
%ADD11C,1.700000*%
%ADD12RotRect,1.700000X1.700000X225.000000*%
%ADD13RoundRect,0.250000X-0.262500X-0.450000X0.262500X-0.450000X0.262500X0.450000X-0.262500X0.450000X0*%
%ADD14RoundRect,0.250000X-0.450000X0.262500X-0.450000X-0.262500X0.450000X-0.262500X0.450000X0.262500X0*%
%ADD15RoundRect,0.250000X0.450000X-0.262500X0.450000X0.262500X-0.450000X0.262500X-0.450000X-0.262500X0*%
%ADD16RoundRect,0.250000X0.262500X0.450000X-0.262500X0.450000X-0.262500X-0.450000X0.262500X-0.450000X0*%
%ADD17RoundRect,0.150000X0.548008X0.335876X0.335876X0.548008X-0.548008X-0.335876X-0.335876X-0.548008X0*%
%ADD18RoundRect,0.250000X0.707107X0.212132X0.212132X0.707107X-0.707107X-0.212132X-0.212132X-0.707107X0*%
%ADD19RotRect,2.000000X2.000000X135.000000*%
G04 APERTURE END LIST*
D10*
%TO.C,SW1*%
X191615781Y-95245689D03*
X191615781Y-88745689D03*
X196115781Y-95245689D03*
X196115781Y-88745689D03*
%TD*%
%TO.C,SW2*%
X191615781Y-107945689D03*
X191615781Y-101445689D03*
X196115781Y-107945689D03*
X196115781Y-101445689D03*
%TD*%
%TO.C,SW7*%
X35000006Y-114145680D03*
X35000006Y-120645680D03*
X30500006Y-114145680D03*
X30500006Y-120645680D03*
%TD*%
D11*
%TO.C,SW13*%
X132460000Y-52500000D03*
X137540000Y-52500000D03*
%TD*%
D10*
%TO.C,SW11*%
X116557889Y-26387797D03*
X110057889Y-26387797D03*
X116557889Y-21887797D03*
X110057889Y-21887797D03*
%TD*%
%TO.C,SW6*%
X97338849Y-183099249D03*
X103838849Y-183099249D03*
X97338849Y-187599249D03*
X103838849Y-187599249D03*
%TD*%
%TO.C,SW4*%
X122738849Y-183099249D03*
X129238849Y-183099249D03*
X122738849Y-187599249D03*
X129238849Y-187599249D03*
%TD*%
%TO.C,SW5*%
X110038849Y-183099249D03*
X116538849Y-183099249D03*
X110038849Y-187599249D03*
X116538849Y-187599249D03*
%TD*%
D12*
%TO.C,J5*%
X135369165Y-93681981D03*
D11*
X133573114Y-91885930D03*
X131777063Y-90089879D03*
X129981011Y-88293827D03*
X128184960Y-86497776D03*
X126388909Y-84701725D03*
X124592858Y-82905674D03*
X122796806Y-81109622D03*
%TD*%
D10*
%TO.C,SW9*%
X35000006Y-88745680D03*
X35000006Y-95245680D03*
X30500006Y-88745680D03*
X30500006Y-95245680D03*
%TD*%
%TO.C,SW3*%
X191615781Y-120645689D03*
X191615781Y-114145689D03*
X196115781Y-120645689D03*
X196115781Y-114145689D03*
%TD*%
%TO.C,SW12*%
X129257889Y-26387797D03*
X122757889Y-26387797D03*
X129257889Y-21887797D03*
X122757889Y-21887797D03*
%TD*%
%TO.C,SW8*%
X35000006Y-101445680D03*
X35000006Y-107945680D03*
X30500006Y-101445680D03*
X30500006Y-107945680D03*
%TD*%
%TO.C,SW10*%
X103857889Y-26387797D03*
X97357889Y-26387797D03*
X103857889Y-21887797D03*
X97357889Y-21887797D03*
%TD*%
D13*
%TO.C,R10*%
X28587500Y-91995680D03*
X30412500Y-91995680D03*
%TD*%
D11*
%TO.C,U2*%
X133608423Y-70023167D03*
X135404474Y-68227116D03*
X137200526Y-66431065D03*
X138996577Y-64635013D03*
X140792628Y-62838962D03*
X142588679Y-61042911D03*
X144384731Y-59246860D03*
X146180782Y-57450808D03*
X147976833Y-55654757D03*
X149772884Y-53858706D03*
X151568935Y-52062655D03*
X153364987Y-50266603D03*
X147976833Y-84391577D03*
X149772884Y-82595526D03*
X151568935Y-80799474D03*
X153364987Y-79003423D03*
X155161038Y-77207372D03*
X156957089Y-75411321D03*
X158753140Y-73615269D03*
X160549192Y-71819218D03*
X162345243Y-70023167D03*
X164141294Y-68227116D03*
X165937345Y-66431065D03*
X167733397Y-64635013D03*
X169529448Y-62838962D03*
X171325499Y-61042911D03*
X173121550Y-59246860D03*
X174917601Y-57450808D03*
%TD*%
D14*
%TO.C,R14*%
X113300000Y-20000000D03*
X113300000Y-21825000D03*
%TD*%
%TO.C,R13*%
X126000000Y-20000000D03*
X126000000Y-21825000D03*
%TD*%
D15*
%TO.C,R9*%
X125988849Y-189412500D03*
X125988849Y-187587500D03*
%TD*%
D13*
%TO.C,R12*%
X28587500Y-117395680D03*
X30412500Y-117395680D03*
%TD*%
%TO.C,R11*%
X28587500Y-104695680D03*
X30412500Y-104695680D03*
%TD*%
D16*
%TO.C,R17*%
X197912500Y-104695689D03*
X196087500Y-104695689D03*
%TD*%
D15*
%TO.C,R8*%
X113288849Y-189412500D03*
X113288849Y-187587500D03*
%TD*%
D14*
%TO.C,R15*%
X100607889Y-20000000D03*
X100607889Y-21825000D03*
%TD*%
D16*
%TO.C,R16*%
X197912500Y-117395689D03*
X196087500Y-117395689D03*
%TD*%
%TO.C,R18*%
X197912500Y-91995689D03*
X196087500Y-91995689D03*
%TD*%
D17*
%TO.C,J2*%
X122974874Y-88146447D03*
X122267767Y-87439340D03*
X121560660Y-86732233D03*
X120853553Y-86025126D03*
D18*
X121154074Y-91805724D03*
X117194276Y-87845926D03*
%TD*%
D15*
%TO.C,R7*%
X100588849Y-189412500D03*
X100588849Y-187587500D03*
%TD*%
D19*
%TO.C,BZ1*%
X162267767Y-152267767D03*
D10*
X158732233Y-148732233D03*
%TD*%
D11*
%TO.C,U3*%
X57631590Y-68888154D03*
X59427641Y-67092102D03*
X61223693Y-65296051D03*
X63019744Y-63500000D03*
X64815795Y-61703949D03*
X66611846Y-59907898D03*
X68407898Y-58111846D03*
X70203949Y-56315795D03*
X72000000Y-54519744D03*
X73796051Y-52723693D03*
X75592102Y-50927641D03*
X77388154Y-49131590D03*
X86368410Y-58111846D03*
X84572359Y-59907898D03*
X82776307Y-61703949D03*
X80980256Y-63500000D03*
X79184205Y-65296051D03*
X77388154Y-67092102D03*
X75592102Y-68888154D03*
X73796051Y-70684205D03*
X72000000Y-72480256D03*
X70203949Y-74276307D03*
X68407898Y-76072359D03*
X66611846Y-77868410D03*
%TD*%
M02*
