%TF.GenerationSoftware,KiCad,Pcbnew,10.0.1*%
%TF.CreationDate,2026-04-28T09:53:27+02:00*%
%TF.ProjectId,FarmGameV2,4661726d-4761-46d6-9556-322e6b696361,rev?*%
%TF.SameCoordinates,Original*%
%TF.FileFunction,Paste,Top*%
%TF.FilePolarity,Positive*%
%FSLAX46Y46*%
G04 Gerber Fmt 4.6, Leading zero omitted, Abs format (unit mm)*
G04 Created by KiCad (PCBNEW 10.0.1) date 2026-04-28 09:53:27*
%MOMM*%
%LPD*%
G01*
G04 APERTURE LIST*
G04 Aperture macros list*
%AMRoundRect*
0 Rectangle with rounded corners*
0 $1 Rounding radius*
0 $2 $3 $4 $5 $6 $7 $8 $9 X,Y pos of 4 corners*
0 Add a 4 corners polygon primitive as box body*
4,1,4,$2,$3,$4,$5,$6,$7,$8,$9,$2,$3,0*
0 Add four circle primitives for the rounded corners*
1,1,$1+$1,$2,$3*
1,1,$1+$1,$4,$5*
1,1,$1+$1,$6,$7*
1,1,$1+$1,$8,$9*
0 Add four rect primitives between the rounded corners*
20,1,$1+$1,$2,$3,$4,$5,0*
20,1,$1+$1,$4,$5,$6,$7,0*
20,1,$1+$1,$6,$7,$8,$9,0*
20,1,$1+$1,$8,$9,$2,$3,0*%
G04 Aperture macros list end*
%ADD10RoundRect,0.090000X0.660000X0.360000X-0.660000X0.360000X-0.660000X-0.360000X0.660000X-0.360000X0*%
%ADD11RoundRect,0.090000X-0.660000X-0.360000X0.660000X-0.360000X0.660000X0.360000X-0.660000X0.360000X0*%
%ADD12RoundRect,0.090000X-0.360000X0.660000X-0.360000X-0.660000X0.360000X-0.660000X0.360000X0.660000X0*%
%ADD13RoundRect,0.150000X-0.521491X0.309359X0.309359X-0.521491X0.521491X-0.309359X-0.309359X0.521491X0*%
%ADD14RoundRect,0.090000X0.360000X-0.660000X0.360000X0.660000X-0.360000X0.660000X-0.360000X-0.660000X0*%
%ADD15RoundRect,0.250000X0.132583X-0.503814X0.503814X-0.132583X-0.132583X0.503814X-0.503814X0.132583X0*%
%ADD16RoundRect,0.250000X0.503814X0.132583X0.132583X0.503814X-0.503814X-0.132583X-0.132583X-0.503814X0*%
G04 APERTURE END LIST*
D10*
%TO.C,D7*%
X107757883Y-171903558D03*
X107757883Y-168603558D03*
X102857883Y-168603558D03*
X102857883Y-171903558D03*
%TD*%
D11*
%TO.C,D14*%
X102857883Y-37487791D03*
X102857883Y-40787791D03*
X107757883Y-40787791D03*
X107757883Y-37487791D03*
%TD*%
D12*
%TO.C,D1*%
X180515767Y-78245674D03*
X177215767Y-78245674D03*
X177215767Y-83145674D03*
X180515767Y-83145674D03*
%TD*%
D13*
%TO.C,Q1*%
X152508839Y-65165336D03*
X151165336Y-66508839D03*
X153162913Y-67162913D03*
%TD*%
D14*
%TO.C,D11*%
X46100000Y-99145674D03*
X49400000Y-99145674D03*
X49400000Y-94245674D03*
X46100000Y-94245674D03*
%TD*%
D10*
%TO.C,D5*%
X139757883Y-171903558D03*
X139757883Y-168603558D03*
X134857883Y-168603558D03*
X134857883Y-171903558D03*
%TD*%
D15*
%TO.C,R3*%
X155354765Y-57145235D03*
X156645235Y-55854765D03*
%TD*%
D11*
%TO.C,D13*%
X86857883Y-37487791D03*
X86857883Y-40787791D03*
X91757883Y-40787791D03*
X91757883Y-37487791D03*
%TD*%
%TO.C,D15*%
X118857883Y-37487791D03*
X118857883Y-40787791D03*
X123757883Y-40787791D03*
X123757883Y-37487791D03*
%TD*%
D16*
%TO.C,R1*%
X166145235Y-54145235D03*
X164854765Y-52854765D03*
%TD*%
D12*
%TO.C,D2*%
X180515767Y-94245674D03*
X177215767Y-94245674D03*
X177215767Y-99145674D03*
X180515767Y-99145674D03*
%TD*%
D10*
%TO.C,D6*%
X123757883Y-171903558D03*
X123757883Y-168603558D03*
X118857883Y-168603558D03*
X118857883Y-171903558D03*
%TD*%
D12*
%TO.C,D4*%
X180515766Y-126245674D03*
X177215766Y-126245674D03*
X177215766Y-131145674D03*
X180515766Y-131145674D03*
%TD*%
D13*
%TO.C,Q3*%
X156508839Y-61665336D03*
X155165336Y-63008839D03*
X157162913Y-63662913D03*
%TD*%
D15*
%TO.C,R2*%
X152354765Y-60145235D03*
X153645235Y-58854765D03*
%TD*%
D14*
%TO.C,D10*%
X46100000Y-115145674D03*
X49400000Y-115145674D03*
X49400000Y-110245674D03*
X46100000Y-110245674D03*
%TD*%
D13*
%TO.C,Q2*%
X162508839Y-55665336D03*
X161165336Y-57008839D03*
X163162913Y-57662913D03*
%TD*%
D14*
%TO.C,D9*%
X46100000Y-131145674D03*
X49400000Y-131145674D03*
X49400000Y-126245674D03*
X46100000Y-126245674D03*
%TD*%
D15*
%TO.C,R6*%
X148354765Y-63645235D03*
X149645235Y-62354765D03*
%TD*%
D12*
%TO.C,D3*%
X180515767Y-110245674D03*
X177215767Y-110245674D03*
X177215767Y-115145674D03*
X180515767Y-115145674D03*
%TD*%
D14*
%TO.C,D12*%
X46100000Y-83145674D03*
X49400000Y-83145674D03*
X49400000Y-78245674D03*
X46100000Y-78245674D03*
%TD*%
D11*
%TO.C,D16*%
X134857883Y-37487791D03*
X134857883Y-40787791D03*
X139757883Y-40787791D03*
X139757883Y-37487791D03*
%TD*%
D10*
%TO.C,D8*%
X91757883Y-171903557D03*
X91757883Y-168603557D03*
X86857883Y-168603557D03*
X86857883Y-171903557D03*
%TD*%
M02*
