M48
; DRILL file KiCad 10.0.1 date 2026-04-28T09:53:29
; FORMAT={-:-/ absolute / metric / decimal}
; #@! TF.CreationDate,2026-04-28T09:53:29+02:00
; #@! TF.GenerationSoftware,Kicad,Pcbnew,10.0.1
; #@! TF.FileFunction,Plated,1,2,PTH
FMAT,2
METRIC
; #@! TA.AperFunction,Plated,PTH,ViaDrill
T1C0.300
; #@! TA.AperFunction,Plated,PTH,ComponentDrill
T2C1.000
; #@! TA.AperFunction,Plated,PTH,ComponentDrill
T3C1.100
%
G90
G05
T1
X95.5Y-173.5
X95.5Y-178.0
X112.5Y-173.5
X112.5Y-178.0
X121.5Y-175.0
X121.5Y-178.0
X150.0Y-65.5
X150.0Y-67.0
X150.5Y-67.5
X151.0Y-43.5
X154.5Y-58.0
X155.5Y-48.0
X155.5Y-69.5
X158.0Y-72.0
X160.0Y-56.0
X160.0Y-57.5
X167.0Y-55.0
T2
X57.632Y-68.888
X59.428Y-67.092
X61.224Y-65.296
X63.02Y-63.5
X64.816Y-61.704
X66.612Y-59.908
X66.612Y-77.868
X68.408Y-58.112
X68.408Y-76.072
X70.204Y-56.316
X70.204Y-74.276
X72.0Y-54.52
X72.0Y-72.48
X73.796Y-52.724
X73.796Y-70.684
X75.592Y-50.928
X75.592Y-68.888
X77.388Y-49.132
X77.388Y-67.092
X79.184Y-65.296
X80.98Y-63.5
X82.776Y-61.704
X84.572Y-59.908
X86.368Y-58.112
X122.797Y-81.11
X124.593Y-82.906
X126.389Y-84.702
X128.185Y-86.498
X129.981Y-88.294
X131.777Y-90.09
X132.46Y-52.5
X133.573Y-91.886
X133.608Y-70.023
X135.369Y-93.682
X135.404Y-68.227
X137.201Y-66.431
X137.54Y-52.5
X138.997Y-64.635
X140.793Y-62.839
X142.589Y-61.043
X144.385Y-59.247
X146.181Y-57.451
X147.977Y-55.655
X147.977Y-84.392
X149.773Y-53.859
X149.773Y-82.596
X151.569Y-52.063
X151.569Y-80.799
X153.365Y-50.267
X153.365Y-79.003
X155.161Y-77.207
X156.957Y-75.411
X158.732Y-148.732
X158.753Y-73.615
X160.549Y-71.819
X162.268Y-152.268
X162.345Y-70.023
X164.141Y-68.227
X165.937Y-66.431
X167.733Y-64.635
X169.529Y-62.839
X171.325Y-61.043
X173.122Y-59.247
X174.918Y-57.451
T3
X30.5Y-88.746
X30.5Y-95.246
X30.5Y-101.446
X30.5Y-107.946
X30.5Y-114.146
X30.5Y-120.646
X35.0Y-88.746
X35.0Y-95.246
X35.0Y-101.446
X35.0Y-107.946
X35.0Y-114.146
X35.0Y-120.646
X97.339Y-183.099
X97.339Y-187.599
X97.358Y-21.888
X97.358Y-26.388
X103.839Y-183.099
X103.839Y-187.599
X103.858Y-21.888
X103.858Y-26.388
X110.039Y-183.099
X110.039Y-187.599
X110.058Y-21.888
X110.058Y-26.388
X116.539Y-183.099
X116.539Y-187.599
X116.558Y-21.888
X116.558Y-26.388
X122.739Y-183.099
X122.739Y-187.599
X122.758Y-21.888
X122.758Y-26.388
X129.239Y-183.099
X129.239Y-187.599
X129.258Y-21.888
X129.258Y-26.388
X191.616Y-88.746
X191.616Y-95.246
X191.616Y-101.446
X191.616Y-107.946
X191.616Y-114.146
X191.616Y-120.646
X196.116Y-88.746
X196.116Y-95.246
X196.116Y-101.446
X196.116Y-107.946
X196.116Y-114.146
X196.116Y-120.646
M30
