%TF.GenerationSoftware,KiCad,Pcbnew,10.0.1*%
%TF.CreationDate,2026-04-28T09:53:27+02:00*%
%TF.ProjectId,FarmGameV2,4661726d-4761-46d6-9556-322e6b696361,rev?*%
%TF.SameCoordinates,Original*%
%TF.FileFunction,Legend,Bot*%
%TF.FilePolarity,Positive*%
%FSLAX46Y46*%
G04 Gerber Fmt 4.6, Leading zero omitted, Abs format (unit mm)*
G04 Created by KiCad (PCBNEW 10.0.1) date 2026-04-28 09:53:27*
%MOMM*%
%LPD*%
G01*
G04 APERTURE LIST*
%ADD10C,0.150000*%
%ADD11C,0.200000*%
%ADD12C,0.120000*%
G04 APERTURE END LIST*
D10*
X120920537Y-82048488D02*
X120954209Y-81947473D01*
X120954209Y-81947473D02*
X121055224Y-81846458D01*
X121055224Y-81846458D02*
X121189911Y-81779114D01*
X121189911Y-81779114D02*
X121324598Y-81779114D01*
X121324598Y-81779114D02*
X121425613Y-81812786D01*
X121425613Y-81812786D02*
X121593972Y-81913801D01*
X121593972Y-81913801D02*
X121694987Y-82014817D01*
X121694987Y-82014817D02*
X121796002Y-82183175D01*
X121796002Y-82183175D02*
X121829674Y-82284191D01*
X121829674Y-82284191D02*
X121829674Y-82418878D01*
X121829674Y-82418878D02*
X121762331Y-82553565D01*
X121762331Y-82553565D02*
X121694987Y-82620908D01*
X121694987Y-82620908D02*
X121560300Y-82688252D01*
X121560300Y-82688252D02*
X121492957Y-82688252D01*
X121492957Y-82688252D02*
X121257254Y-82452549D01*
X121257254Y-82452549D02*
X121391941Y-82317862D01*
X121257254Y-83058641D02*
X120550148Y-82351534D01*
X120550148Y-82351534D02*
X120853193Y-83462702D01*
X120853193Y-83462702D02*
X120146087Y-82755595D01*
X120516476Y-83799420D02*
X119809369Y-83092313D01*
X119809369Y-83092313D02*
X119641010Y-83260671D01*
X119641010Y-83260671D02*
X119573667Y-83395358D01*
X119573667Y-83395358D02*
X119573667Y-83530046D01*
X119573667Y-83530046D02*
X119607339Y-83631061D01*
X119607339Y-83631061D02*
X119708354Y-83799420D01*
X119708354Y-83799420D02*
X119809369Y-83900435D01*
X119809369Y-83900435D02*
X119977728Y-84001450D01*
X119977728Y-84001450D02*
X120078743Y-84035122D01*
X120078743Y-84035122D02*
X120213430Y-84035122D01*
X120213430Y-84035122D02*
X120348117Y-83967778D01*
X120348117Y-83967778D02*
X120516476Y-83799420D01*
X123423583Y-83378099D02*
X123894987Y-84320908D01*
X123894987Y-84320908D02*
X122952178Y-83849504D01*
X122952178Y-85129030D02*
X123019522Y-85129030D01*
X123019522Y-85129030D02*
X123154209Y-85061687D01*
X123154209Y-85061687D02*
X123221552Y-84994343D01*
X123221552Y-84994343D02*
X123288896Y-84859656D01*
X123288896Y-84859656D02*
X123288896Y-84724969D01*
X123288896Y-84724969D02*
X123255224Y-84623954D01*
X123255224Y-84623954D02*
X123154209Y-84455595D01*
X123154209Y-84455595D02*
X123053193Y-84354580D01*
X123053193Y-84354580D02*
X122884835Y-84253565D01*
X122884835Y-84253565D02*
X122783819Y-84219893D01*
X122783819Y-84219893D02*
X122649132Y-84219893D01*
X122649132Y-84219893D02*
X122514445Y-84287236D01*
X122514445Y-84287236D02*
X122447102Y-84354580D01*
X122447102Y-84354580D02*
X122379758Y-84489267D01*
X122379758Y-84489267D02*
X122379758Y-84556610D01*
X122245071Y-85836137D02*
X122312415Y-85836137D01*
X122312415Y-85836137D02*
X122447102Y-85768794D01*
X122447102Y-85768794D02*
X122514445Y-85701450D01*
X122514445Y-85701450D02*
X122581789Y-85566763D01*
X122581789Y-85566763D02*
X122581789Y-85432076D01*
X122581789Y-85432076D02*
X122548117Y-85331061D01*
X122548117Y-85331061D02*
X122447102Y-85162702D01*
X122447102Y-85162702D02*
X122346087Y-85061687D01*
X122346087Y-85061687D02*
X122177728Y-84960671D01*
X122177728Y-84960671D02*
X122076713Y-84927000D01*
X122076713Y-84927000D02*
X121942026Y-84927000D01*
X121942026Y-84927000D02*
X121807339Y-84994343D01*
X121807339Y-84994343D02*
X121739995Y-85061687D01*
X121739995Y-85061687D02*
X121672652Y-85196374D01*
X121672652Y-85196374D02*
X121672652Y-85263717D01*
X125681192Y-85980640D02*
X125613848Y-86115327D01*
X125613848Y-86115327D02*
X125445490Y-86283686D01*
X125445490Y-86283686D02*
X125344474Y-86317358D01*
X125344474Y-86317358D02*
X125277131Y-86317358D01*
X125277131Y-86317358D02*
X125176116Y-86283686D01*
X125176116Y-86283686D02*
X125108772Y-86216342D01*
X125108772Y-86216342D02*
X125075100Y-86115327D01*
X125075100Y-86115327D02*
X125075100Y-86047984D01*
X125075100Y-86047984D02*
X125108772Y-85946968D01*
X125108772Y-85946968D02*
X125209787Y-85778610D01*
X125209787Y-85778610D02*
X125243459Y-85677594D01*
X125243459Y-85677594D02*
X125243459Y-85610251D01*
X125243459Y-85610251D02*
X125209787Y-85509236D01*
X125209787Y-85509236D02*
X125142444Y-85441892D01*
X125142444Y-85441892D02*
X125041429Y-85408220D01*
X125041429Y-85408220D02*
X124974085Y-85408220D01*
X124974085Y-85408220D02*
X124873070Y-85441892D01*
X124873070Y-85441892D02*
X124704711Y-85610251D01*
X124704711Y-85610251D02*
X124637367Y-85744938D01*
X124536352Y-87058136D02*
X124603696Y-87058136D01*
X124603696Y-87058136D02*
X124738383Y-86990793D01*
X124738383Y-86990793D02*
X124805726Y-86923449D01*
X124805726Y-86923449D02*
X124873070Y-86788762D01*
X124873070Y-86788762D02*
X124873070Y-86654075D01*
X124873070Y-86654075D02*
X124839398Y-86553060D01*
X124839398Y-86553060D02*
X124738383Y-86384701D01*
X124738383Y-86384701D02*
X124637367Y-86283686D01*
X124637367Y-86283686D02*
X124469009Y-86182671D01*
X124469009Y-86182671D02*
X124367993Y-86148999D01*
X124367993Y-86148999D02*
X124233306Y-86148999D01*
X124233306Y-86148999D02*
X124098619Y-86216342D01*
X124098619Y-86216342D02*
X124031276Y-86283686D01*
X124031276Y-86283686D02*
X123963932Y-86418373D01*
X123963932Y-86418373D02*
X123963932Y-86485716D01*
X123963932Y-87765243D02*
X124300650Y-87428525D01*
X124300650Y-87428525D02*
X123593543Y-86721419D01*
X127296003Y-87952549D02*
X127228659Y-88087236D01*
X127228659Y-88087236D02*
X127060300Y-88255595D01*
X127060300Y-88255595D02*
X126959285Y-88289267D01*
X126959285Y-88289267D02*
X126891941Y-88289267D01*
X126891941Y-88289267D02*
X126790926Y-88255595D01*
X126790926Y-88255595D02*
X126723583Y-88188252D01*
X126723583Y-88188252D02*
X126689911Y-88087236D01*
X126689911Y-88087236D02*
X126689911Y-88019893D01*
X126689911Y-88019893D02*
X126723583Y-87918878D01*
X126723583Y-87918878D02*
X126824598Y-87750519D01*
X126824598Y-87750519D02*
X126858270Y-87649504D01*
X126858270Y-87649504D02*
X126858270Y-87582160D01*
X126858270Y-87582160D02*
X126824598Y-87481145D01*
X126824598Y-87481145D02*
X126757254Y-87413801D01*
X126757254Y-87413801D02*
X126656239Y-87380130D01*
X126656239Y-87380130D02*
X126588896Y-87380130D01*
X126588896Y-87380130D02*
X126487880Y-87413801D01*
X126487880Y-87413801D02*
X126319522Y-87582160D01*
X126319522Y-87582160D02*
X126252178Y-87716847D01*
X126622567Y-88693328D02*
X125915461Y-87986221D01*
X125915461Y-87986221D02*
X125747102Y-88154580D01*
X125747102Y-88154580D02*
X125679758Y-88289267D01*
X125679758Y-88289267D02*
X125679758Y-88423954D01*
X125679758Y-88423954D02*
X125713430Y-88524969D01*
X125713430Y-88524969D02*
X125814445Y-88693328D01*
X125814445Y-88693328D02*
X125915461Y-88794343D01*
X125915461Y-88794343D02*
X126083819Y-88895358D01*
X126083819Y-88895358D02*
X126184835Y-88929030D01*
X126184835Y-88929030D02*
X126319522Y-88929030D01*
X126319522Y-88929030D02*
X126454209Y-88861687D01*
X126454209Y-88861687D02*
X126622567Y-88693328D01*
X125747102Y-89164732D02*
X125410384Y-89501450D01*
X126016476Y-89299419D02*
X125073667Y-88828015D01*
X125073667Y-88828015D02*
X125545071Y-89770824D01*
X128824598Y-89991297D02*
X128723583Y-89418878D01*
X129228659Y-89587236D02*
X128521552Y-88880129D01*
X128521552Y-88880129D02*
X128252178Y-89149503D01*
X128252178Y-89149503D02*
X128218507Y-89250519D01*
X128218507Y-89250519D02*
X128218507Y-89317862D01*
X128218507Y-89317862D02*
X128252178Y-89418878D01*
X128252178Y-89418878D02*
X128353194Y-89519893D01*
X128353194Y-89519893D02*
X128454209Y-89553565D01*
X128454209Y-89553565D02*
X128521552Y-89553565D01*
X128521552Y-89553565D02*
X128622568Y-89519893D01*
X128622568Y-89519893D02*
X128891942Y-89250519D01*
X128521552Y-90227000D02*
X128454209Y-90361687D01*
X128454209Y-90361687D02*
X128285850Y-90530045D01*
X128285850Y-90530045D02*
X128184835Y-90563717D01*
X128184835Y-90563717D02*
X128117491Y-90563717D01*
X128117491Y-90563717D02*
X128016476Y-90530045D01*
X128016476Y-90530045D02*
X127949133Y-90462702D01*
X127949133Y-90462702D02*
X127915461Y-90361687D01*
X127915461Y-90361687D02*
X127915461Y-90294343D01*
X127915461Y-90294343D02*
X127949133Y-90193328D01*
X127949133Y-90193328D02*
X128050148Y-90024969D01*
X128050148Y-90024969D02*
X128083820Y-89923954D01*
X128083820Y-89923954D02*
X128083820Y-89856610D01*
X128083820Y-89856610D02*
X128050148Y-89755595D01*
X128050148Y-89755595D02*
X127982804Y-89688252D01*
X127982804Y-89688252D02*
X127881789Y-89654580D01*
X127881789Y-89654580D02*
X127814446Y-89654580D01*
X127814446Y-89654580D02*
X127713430Y-89688252D01*
X127713430Y-89688252D02*
X127545071Y-89856610D01*
X127545071Y-89856610D02*
X127477728Y-89991297D01*
X127242026Y-90159656D02*
X126837965Y-90563717D01*
X127747102Y-91068793D02*
X127039995Y-90361687D01*
X130723583Y-91592313D02*
X130016476Y-90885206D01*
X130016476Y-90885206D02*
X129848117Y-91053565D01*
X129848117Y-91053565D02*
X129780774Y-91188252D01*
X129780774Y-91188252D02*
X129780774Y-91322939D01*
X129780774Y-91322939D02*
X129814445Y-91423954D01*
X129814445Y-91423954D02*
X129915461Y-91592313D01*
X129915461Y-91592313D02*
X130016476Y-91693328D01*
X130016476Y-91693328D02*
X130184835Y-91794343D01*
X130184835Y-91794343D02*
X130285850Y-91828015D01*
X130285850Y-91828015D02*
X130420537Y-91828015D01*
X130420537Y-91828015D02*
X130555224Y-91760671D01*
X130555224Y-91760671D02*
X130723583Y-91592313D01*
X129545071Y-92636137D02*
X129612415Y-92636137D01*
X129612415Y-92636137D02*
X129747102Y-92568794D01*
X129747102Y-92568794D02*
X129814445Y-92501450D01*
X129814445Y-92501450D02*
X129881789Y-92366763D01*
X129881789Y-92366763D02*
X129881789Y-92232076D01*
X129881789Y-92232076D02*
X129848117Y-92131061D01*
X129848117Y-92131061D02*
X129747102Y-91962702D01*
X129747102Y-91962702D02*
X129646087Y-91861687D01*
X129646087Y-91861687D02*
X129477728Y-91760671D01*
X129477728Y-91760671D02*
X129376713Y-91727000D01*
X129376713Y-91727000D02*
X129242026Y-91727000D01*
X129242026Y-91727000D02*
X129107339Y-91794343D01*
X129107339Y-91794343D02*
X129039995Y-91861687D01*
X129039995Y-91861687D02*
X128972652Y-91996374D01*
X128972652Y-91996374D02*
X128972652Y-92063717D01*
X132218506Y-93962702D02*
X132285850Y-93962702D01*
X132285850Y-93962702D02*
X132420537Y-93895358D01*
X132420537Y-93895358D02*
X132487880Y-93828015D01*
X132487880Y-93828015D02*
X132555224Y-93693328D01*
X132555224Y-93693328D02*
X132555224Y-93558641D01*
X132555224Y-93558641D02*
X132521552Y-93457626D01*
X132521552Y-93457626D02*
X132420537Y-93289267D01*
X132420537Y-93289267D02*
X132319522Y-93188252D01*
X132319522Y-93188252D02*
X132151163Y-93087236D01*
X132151163Y-93087236D02*
X132050148Y-93053565D01*
X132050148Y-93053565D02*
X131915461Y-93053565D01*
X131915461Y-93053565D02*
X131780774Y-93120908D01*
X131780774Y-93120908D02*
X131713430Y-93188252D01*
X131713430Y-93188252D02*
X131646087Y-93322939D01*
X131646087Y-93322939D02*
X131646087Y-93390282D01*
X131982804Y-94265748D02*
X131915461Y-94400435D01*
X131915461Y-94400435D02*
X131747102Y-94568793D01*
X131747102Y-94568793D02*
X131646087Y-94602465D01*
X131646087Y-94602465D02*
X131578743Y-94602465D01*
X131578743Y-94602465D02*
X131477728Y-94568793D01*
X131477728Y-94568793D02*
X131410384Y-94501450D01*
X131410384Y-94501450D02*
X131376713Y-94400435D01*
X131376713Y-94400435D02*
X131376713Y-94333091D01*
X131376713Y-94333091D02*
X131410384Y-94232076D01*
X131410384Y-94232076D02*
X131511400Y-94063717D01*
X131511400Y-94063717D02*
X131545071Y-93962702D01*
X131545071Y-93962702D02*
X131545071Y-93895358D01*
X131545071Y-93895358D02*
X131511400Y-93794343D01*
X131511400Y-93794343D02*
X131444056Y-93727000D01*
X131444056Y-93727000D02*
X131343041Y-93693328D01*
X131343041Y-93693328D02*
X131275697Y-93693328D01*
X131275697Y-93693328D02*
X131174682Y-93727000D01*
X131174682Y-93727000D02*
X131006323Y-93895358D01*
X131006323Y-93895358D02*
X130938980Y-94030045D01*
X134189911Y-94885206D02*
X134122567Y-95019893D01*
X134122567Y-95019893D02*
X134122567Y-95087236D01*
X134122567Y-95087236D02*
X134156239Y-95188252D01*
X134156239Y-95188252D02*
X134257254Y-95289267D01*
X134257254Y-95289267D02*
X134358270Y-95322939D01*
X134358270Y-95322939D02*
X134425613Y-95322939D01*
X134425613Y-95322939D02*
X134526628Y-95289267D01*
X134526628Y-95289267D02*
X134796003Y-95019893D01*
X134796003Y-95019893D02*
X134088896Y-94312786D01*
X134088896Y-94312786D02*
X133853193Y-94548488D01*
X133853193Y-94548488D02*
X133819522Y-94649504D01*
X133819522Y-94649504D02*
X133819522Y-94716847D01*
X133819522Y-94716847D02*
X133853193Y-94817862D01*
X133853193Y-94817862D02*
X133920537Y-94885206D01*
X133920537Y-94885206D02*
X134021552Y-94918878D01*
X134021552Y-94918878D02*
X134088896Y-94918878D01*
X134088896Y-94918878D02*
X134189911Y-94885206D01*
X134189911Y-94885206D02*
X134425613Y-94649504D01*
X133752178Y-96063717D02*
X134088896Y-95727000D01*
X134088896Y-95727000D02*
X133381789Y-95019893D01*
X133516476Y-96299420D02*
X132809369Y-95592313D01*
X133112415Y-96703481D02*
X133011400Y-95996374D01*
X132405308Y-95996374D02*
X133213430Y-95996374D01*
X133336779Y-49130180D02*
X133336779Y-50130180D01*
X133336779Y-50130180D02*
X133717731Y-50130180D01*
X133717731Y-50130180D02*
X133812969Y-50082561D01*
X133812969Y-50082561D02*
X133860588Y-50034942D01*
X133860588Y-50034942D02*
X133908207Y-49939704D01*
X133908207Y-49939704D02*
X133908207Y-49796847D01*
X133908207Y-49796847D02*
X133860588Y-49701609D01*
X133860588Y-49701609D02*
X133812969Y-49653990D01*
X133812969Y-49653990D02*
X133717731Y-49606371D01*
X133717731Y-49606371D02*
X133336779Y-49606371D01*
X134527255Y-50130180D02*
X134717731Y-50130180D01*
X134717731Y-50130180D02*
X134812969Y-50082561D01*
X134812969Y-50082561D02*
X134908207Y-49987323D01*
X134908207Y-49987323D02*
X134955826Y-49796847D01*
X134955826Y-49796847D02*
X134955826Y-49463514D01*
X134955826Y-49463514D02*
X134908207Y-49273038D01*
X134908207Y-49273038D02*
X134812969Y-49177800D01*
X134812969Y-49177800D02*
X134717731Y-49130180D01*
X134717731Y-49130180D02*
X134527255Y-49130180D01*
X134527255Y-49130180D02*
X134432017Y-49177800D01*
X134432017Y-49177800D02*
X134336779Y-49273038D01*
X134336779Y-49273038D02*
X134289160Y-49463514D01*
X134289160Y-49463514D02*
X134289160Y-49796847D01*
X134289160Y-49796847D02*
X134336779Y-49987323D01*
X134336779Y-49987323D02*
X134432017Y-50082561D01*
X134432017Y-50082561D02*
X134527255Y-50130180D01*
X135289160Y-50130180D02*
X135527255Y-49130180D01*
X135527255Y-49130180D02*
X135717731Y-49844466D01*
X135717731Y-49844466D02*
X135908207Y-49130180D01*
X135908207Y-49130180D02*
X136146303Y-50130180D01*
X136527255Y-49653990D02*
X136860588Y-49653990D01*
X137003445Y-49130180D02*
X136527255Y-49130180D01*
X136527255Y-49130180D02*
X136527255Y-50130180D01*
X136527255Y-50130180D02*
X137003445Y-50130180D01*
X138003445Y-49130180D02*
X137670112Y-49606371D01*
X137432017Y-49130180D02*
X137432017Y-50130180D01*
X137432017Y-50130180D02*
X137812969Y-50130180D01*
X137812969Y-50130180D02*
X137908207Y-50082561D01*
X137908207Y-50082561D02*
X137955826Y-50034942D01*
X137955826Y-50034942D02*
X138003445Y-49939704D01*
X138003445Y-49939704D02*
X138003445Y-49796847D01*
X138003445Y-49796847D02*
X137955826Y-49701609D01*
X137955826Y-49701609D02*
X137908207Y-49653990D01*
X137908207Y-49653990D02*
X137812969Y-49606371D01*
X137812969Y-49606371D02*
X137432017Y-49606371D01*
D11*
X102188848Y-181285600D02*
X102017420Y-181342742D01*
X102017420Y-181342742D02*
X101731705Y-181342742D01*
X101731705Y-181342742D02*
X101617420Y-181285600D01*
X101617420Y-181285600D02*
X101560277Y-181228457D01*
X101560277Y-181228457D02*
X101503134Y-181114171D01*
X101503134Y-181114171D02*
X101503134Y-180999885D01*
X101503134Y-180999885D02*
X101560277Y-180885600D01*
X101560277Y-180885600D02*
X101617420Y-180828457D01*
X101617420Y-180828457D02*
X101731705Y-180771314D01*
X101731705Y-180771314D02*
X101960277Y-180714171D01*
X101960277Y-180714171D02*
X102074562Y-180657028D01*
X102074562Y-180657028D02*
X102131705Y-180599885D01*
X102131705Y-180599885D02*
X102188848Y-180485600D01*
X102188848Y-180485600D02*
X102188848Y-180371314D01*
X102188848Y-180371314D02*
X102131705Y-180257028D01*
X102131705Y-180257028D02*
X102074562Y-180199885D01*
X102074562Y-180199885D02*
X101960277Y-180142742D01*
X101960277Y-180142742D02*
X101674562Y-180142742D01*
X101674562Y-180142742D02*
X101503134Y-180199885D01*
X101103134Y-180142742D02*
X100817420Y-181342742D01*
X100817420Y-181342742D02*
X100588848Y-180485600D01*
X100588848Y-180485600D02*
X100360277Y-181342742D01*
X100360277Y-181342742D02*
X100074563Y-180142742D01*
X99103134Y-180142742D02*
X99331705Y-180142742D01*
X99331705Y-180142742D02*
X99445991Y-180199885D01*
X99445991Y-180199885D02*
X99503134Y-180257028D01*
X99503134Y-180257028D02*
X99617419Y-180428457D01*
X99617419Y-180428457D02*
X99674562Y-180657028D01*
X99674562Y-180657028D02*
X99674562Y-181114171D01*
X99674562Y-181114171D02*
X99617419Y-181228457D01*
X99617419Y-181228457D02*
X99560276Y-181285600D01*
X99560276Y-181285600D02*
X99445991Y-181342742D01*
X99445991Y-181342742D02*
X99217419Y-181342742D01*
X99217419Y-181342742D02*
X99103134Y-181285600D01*
X99103134Y-181285600D02*
X99045991Y-181228457D01*
X99045991Y-181228457D02*
X98988848Y-181114171D01*
X98988848Y-181114171D02*
X98988848Y-180828457D01*
X98988848Y-180828457D02*
X99045991Y-180714171D01*
X99045991Y-180714171D02*
X99103134Y-180657028D01*
X99103134Y-180657028D02*
X99217419Y-180599885D01*
X99217419Y-180599885D02*
X99445991Y-180599885D01*
X99445991Y-180599885D02*
X99560276Y-180657028D01*
X99560276Y-180657028D02*
X99617419Y-180714171D01*
X99617419Y-180714171D02*
X99674562Y-180828457D01*
X114888848Y-181285600D02*
X114717420Y-181342742D01*
X114717420Y-181342742D02*
X114431705Y-181342742D01*
X114431705Y-181342742D02*
X114317420Y-181285600D01*
X114317420Y-181285600D02*
X114260277Y-181228457D01*
X114260277Y-181228457D02*
X114203134Y-181114171D01*
X114203134Y-181114171D02*
X114203134Y-180999885D01*
X114203134Y-180999885D02*
X114260277Y-180885600D01*
X114260277Y-180885600D02*
X114317420Y-180828457D01*
X114317420Y-180828457D02*
X114431705Y-180771314D01*
X114431705Y-180771314D02*
X114660277Y-180714171D01*
X114660277Y-180714171D02*
X114774562Y-180657028D01*
X114774562Y-180657028D02*
X114831705Y-180599885D01*
X114831705Y-180599885D02*
X114888848Y-180485600D01*
X114888848Y-180485600D02*
X114888848Y-180371314D01*
X114888848Y-180371314D02*
X114831705Y-180257028D01*
X114831705Y-180257028D02*
X114774562Y-180199885D01*
X114774562Y-180199885D02*
X114660277Y-180142742D01*
X114660277Y-180142742D02*
X114374562Y-180142742D01*
X114374562Y-180142742D02*
X114203134Y-180199885D01*
X113803134Y-180142742D02*
X113517420Y-181342742D01*
X113517420Y-181342742D02*
X113288848Y-180485600D01*
X113288848Y-180485600D02*
X113060277Y-181342742D01*
X113060277Y-181342742D02*
X112774563Y-180142742D01*
X111745991Y-180142742D02*
X112317419Y-180142742D01*
X112317419Y-180142742D02*
X112374562Y-180714171D01*
X112374562Y-180714171D02*
X112317419Y-180657028D01*
X112317419Y-180657028D02*
X112203134Y-180599885D01*
X112203134Y-180599885D02*
X111917419Y-180599885D01*
X111917419Y-180599885D02*
X111803134Y-180657028D01*
X111803134Y-180657028D02*
X111745991Y-180714171D01*
X111745991Y-180714171D02*
X111688848Y-180828457D01*
X111688848Y-180828457D02*
X111688848Y-181114171D01*
X111688848Y-181114171D02*
X111745991Y-181228457D01*
X111745991Y-181228457D02*
X111803134Y-181285600D01*
X111803134Y-181285600D02*
X111917419Y-181342742D01*
X111917419Y-181342742D02*
X112203134Y-181342742D01*
X112203134Y-181342742D02*
X112317419Y-181285600D01*
X112317419Y-181285600D02*
X112374562Y-181228457D01*
X127588848Y-181285600D02*
X127417420Y-181342742D01*
X127417420Y-181342742D02*
X127131705Y-181342742D01*
X127131705Y-181342742D02*
X127017420Y-181285600D01*
X127017420Y-181285600D02*
X126960277Y-181228457D01*
X126960277Y-181228457D02*
X126903134Y-181114171D01*
X126903134Y-181114171D02*
X126903134Y-180999885D01*
X126903134Y-180999885D02*
X126960277Y-180885600D01*
X126960277Y-180885600D02*
X127017420Y-180828457D01*
X127017420Y-180828457D02*
X127131705Y-180771314D01*
X127131705Y-180771314D02*
X127360277Y-180714171D01*
X127360277Y-180714171D02*
X127474562Y-180657028D01*
X127474562Y-180657028D02*
X127531705Y-180599885D01*
X127531705Y-180599885D02*
X127588848Y-180485600D01*
X127588848Y-180485600D02*
X127588848Y-180371314D01*
X127588848Y-180371314D02*
X127531705Y-180257028D01*
X127531705Y-180257028D02*
X127474562Y-180199885D01*
X127474562Y-180199885D02*
X127360277Y-180142742D01*
X127360277Y-180142742D02*
X127074562Y-180142742D01*
X127074562Y-180142742D02*
X126903134Y-180199885D01*
X126503134Y-180142742D02*
X126217420Y-181342742D01*
X126217420Y-181342742D02*
X125988848Y-180485600D01*
X125988848Y-180485600D02*
X125760277Y-181342742D01*
X125760277Y-181342742D02*
X125474563Y-180142742D01*
X124503134Y-180542742D02*
X124503134Y-181342742D01*
X124788848Y-180085600D02*
X125074562Y-180942742D01*
X125074562Y-180942742D02*
X124331705Y-180942742D01*
X189785600Y-90500000D02*
X189842742Y-90671429D01*
X189842742Y-90671429D02*
X189842742Y-90957143D01*
X189842742Y-90957143D02*
X189785600Y-91071429D01*
X189785600Y-91071429D02*
X189728457Y-91128571D01*
X189728457Y-91128571D02*
X189614171Y-91185714D01*
X189614171Y-91185714D02*
X189499885Y-91185714D01*
X189499885Y-91185714D02*
X189385600Y-91128571D01*
X189385600Y-91128571D02*
X189328457Y-91071429D01*
X189328457Y-91071429D02*
X189271314Y-90957143D01*
X189271314Y-90957143D02*
X189214171Y-90728571D01*
X189214171Y-90728571D02*
X189157028Y-90614286D01*
X189157028Y-90614286D02*
X189099885Y-90557143D01*
X189099885Y-90557143D02*
X188985600Y-90500000D01*
X188985600Y-90500000D02*
X188871314Y-90500000D01*
X188871314Y-90500000D02*
X188757028Y-90557143D01*
X188757028Y-90557143D02*
X188699885Y-90614286D01*
X188699885Y-90614286D02*
X188642742Y-90728571D01*
X188642742Y-90728571D02*
X188642742Y-91014286D01*
X188642742Y-91014286D02*
X188699885Y-91185714D01*
X188642742Y-91585714D02*
X189842742Y-91871428D01*
X189842742Y-91871428D02*
X188985600Y-92100000D01*
X188985600Y-92100000D02*
X189842742Y-92328571D01*
X189842742Y-92328571D02*
X188642742Y-92614286D01*
X189842742Y-93700000D02*
X189842742Y-93014286D01*
X189842742Y-93357143D02*
X188642742Y-93357143D01*
X188642742Y-93357143D02*
X188814171Y-93242857D01*
X188814171Y-93242857D02*
X188928457Y-93128572D01*
X188928457Y-93128572D02*
X188985600Y-93014286D01*
X189785600Y-103200000D02*
X189842742Y-103371429D01*
X189842742Y-103371429D02*
X189842742Y-103657143D01*
X189842742Y-103657143D02*
X189785600Y-103771429D01*
X189785600Y-103771429D02*
X189728457Y-103828571D01*
X189728457Y-103828571D02*
X189614171Y-103885714D01*
X189614171Y-103885714D02*
X189499885Y-103885714D01*
X189499885Y-103885714D02*
X189385600Y-103828571D01*
X189385600Y-103828571D02*
X189328457Y-103771429D01*
X189328457Y-103771429D02*
X189271314Y-103657143D01*
X189271314Y-103657143D02*
X189214171Y-103428571D01*
X189214171Y-103428571D02*
X189157028Y-103314286D01*
X189157028Y-103314286D02*
X189099885Y-103257143D01*
X189099885Y-103257143D02*
X188985600Y-103200000D01*
X188985600Y-103200000D02*
X188871314Y-103200000D01*
X188871314Y-103200000D02*
X188757028Y-103257143D01*
X188757028Y-103257143D02*
X188699885Y-103314286D01*
X188699885Y-103314286D02*
X188642742Y-103428571D01*
X188642742Y-103428571D02*
X188642742Y-103714286D01*
X188642742Y-103714286D02*
X188699885Y-103885714D01*
X188642742Y-104285714D02*
X189842742Y-104571428D01*
X189842742Y-104571428D02*
X188985600Y-104800000D01*
X188985600Y-104800000D02*
X189842742Y-105028571D01*
X189842742Y-105028571D02*
X188642742Y-105314286D01*
X188757028Y-105714286D02*
X188699885Y-105771429D01*
X188699885Y-105771429D02*
X188642742Y-105885715D01*
X188642742Y-105885715D02*
X188642742Y-106171429D01*
X188642742Y-106171429D02*
X188699885Y-106285715D01*
X188699885Y-106285715D02*
X188757028Y-106342857D01*
X188757028Y-106342857D02*
X188871314Y-106400000D01*
X188871314Y-106400000D02*
X188985600Y-106400000D01*
X188985600Y-106400000D02*
X189157028Y-106342857D01*
X189157028Y-106342857D02*
X189842742Y-105657143D01*
X189842742Y-105657143D02*
X189842742Y-106400000D01*
X189785600Y-115900000D02*
X189842742Y-116071429D01*
X189842742Y-116071429D02*
X189842742Y-116357143D01*
X189842742Y-116357143D02*
X189785600Y-116471429D01*
X189785600Y-116471429D02*
X189728457Y-116528571D01*
X189728457Y-116528571D02*
X189614171Y-116585714D01*
X189614171Y-116585714D02*
X189499885Y-116585714D01*
X189499885Y-116585714D02*
X189385600Y-116528571D01*
X189385600Y-116528571D02*
X189328457Y-116471429D01*
X189328457Y-116471429D02*
X189271314Y-116357143D01*
X189271314Y-116357143D02*
X189214171Y-116128571D01*
X189214171Y-116128571D02*
X189157028Y-116014286D01*
X189157028Y-116014286D02*
X189099885Y-115957143D01*
X189099885Y-115957143D02*
X188985600Y-115900000D01*
X188985600Y-115900000D02*
X188871314Y-115900000D01*
X188871314Y-115900000D02*
X188757028Y-115957143D01*
X188757028Y-115957143D02*
X188699885Y-116014286D01*
X188699885Y-116014286D02*
X188642742Y-116128571D01*
X188642742Y-116128571D02*
X188642742Y-116414286D01*
X188642742Y-116414286D02*
X188699885Y-116585714D01*
X188642742Y-116985714D02*
X189842742Y-117271428D01*
X189842742Y-117271428D02*
X188985600Y-117500000D01*
X188985600Y-117500000D02*
X189842742Y-117728571D01*
X189842742Y-117728571D02*
X188642742Y-118014286D01*
X188642742Y-118357143D02*
X188642742Y-119100000D01*
X188642742Y-119100000D02*
X189099885Y-118700000D01*
X189099885Y-118700000D02*
X189099885Y-118871429D01*
X189099885Y-118871429D02*
X189157028Y-118985715D01*
X189157028Y-118985715D02*
X189214171Y-119042857D01*
X189214171Y-119042857D02*
X189328457Y-119100000D01*
X189328457Y-119100000D02*
X189614171Y-119100000D01*
X189614171Y-119100000D02*
X189728457Y-119042857D01*
X189728457Y-119042857D02*
X189785600Y-118985715D01*
X189785600Y-118985715D02*
X189842742Y-118871429D01*
X189842742Y-118871429D02*
X189842742Y-118528572D01*
X189842742Y-118528572D02*
X189785600Y-118414286D01*
X189785600Y-118414286D02*
X189728457Y-118357143D01*
X98428571Y-28214400D02*
X98600000Y-28157257D01*
X98600000Y-28157257D02*
X98885714Y-28157257D01*
X98885714Y-28157257D02*
X99000000Y-28214400D01*
X99000000Y-28214400D02*
X99057142Y-28271542D01*
X99057142Y-28271542D02*
X99114285Y-28385828D01*
X99114285Y-28385828D02*
X99114285Y-28500114D01*
X99114285Y-28500114D02*
X99057142Y-28614400D01*
X99057142Y-28614400D02*
X99000000Y-28671542D01*
X99000000Y-28671542D02*
X98885714Y-28728685D01*
X98885714Y-28728685D02*
X98657142Y-28785828D01*
X98657142Y-28785828D02*
X98542857Y-28842971D01*
X98542857Y-28842971D02*
X98485714Y-28900114D01*
X98485714Y-28900114D02*
X98428571Y-29014400D01*
X98428571Y-29014400D02*
X98428571Y-29128685D01*
X98428571Y-29128685D02*
X98485714Y-29242971D01*
X98485714Y-29242971D02*
X98542857Y-29300114D01*
X98542857Y-29300114D02*
X98657142Y-29357257D01*
X98657142Y-29357257D02*
X98942857Y-29357257D01*
X98942857Y-29357257D02*
X99114285Y-29300114D01*
X99514285Y-29357257D02*
X99799999Y-28157257D01*
X99799999Y-28157257D02*
X100028571Y-29014400D01*
X100028571Y-29014400D02*
X100257142Y-28157257D01*
X100257142Y-28157257D02*
X100542857Y-29357257D01*
X101628571Y-28157257D02*
X100942857Y-28157257D01*
X101285714Y-28157257D02*
X101285714Y-29357257D01*
X101285714Y-29357257D02*
X101171428Y-29185828D01*
X101171428Y-29185828D02*
X101057143Y-29071542D01*
X101057143Y-29071542D02*
X100942857Y-29014400D01*
X102371428Y-29357257D02*
X102485714Y-29357257D01*
X102485714Y-29357257D02*
X102600000Y-29300114D01*
X102600000Y-29300114D02*
X102657143Y-29242971D01*
X102657143Y-29242971D02*
X102714285Y-29128685D01*
X102714285Y-29128685D02*
X102771428Y-28900114D01*
X102771428Y-28900114D02*
X102771428Y-28614400D01*
X102771428Y-28614400D02*
X102714285Y-28385828D01*
X102714285Y-28385828D02*
X102657143Y-28271542D01*
X102657143Y-28271542D02*
X102600000Y-28214400D01*
X102600000Y-28214400D02*
X102485714Y-28157257D01*
X102485714Y-28157257D02*
X102371428Y-28157257D01*
X102371428Y-28157257D02*
X102257143Y-28214400D01*
X102257143Y-28214400D02*
X102200000Y-28271542D01*
X102200000Y-28271542D02*
X102142857Y-28385828D01*
X102142857Y-28385828D02*
X102085714Y-28614400D01*
X102085714Y-28614400D02*
X102085714Y-28900114D01*
X102085714Y-28900114D02*
X102142857Y-29128685D01*
X102142857Y-29128685D02*
X102200000Y-29242971D01*
X102200000Y-29242971D02*
X102257143Y-29300114D01*
X102257143Y-29300114D02*
X102371428Y-29357257D01*
X111128571Y-28214400D02*
X111300000Y-28157257D01*
X111300000Y-28157257D02*
X111585714Y-28157257D01*
X111585714Y-28157257D02*
X111700000Y-28214400D01*
X111700000Y-28214400D02*
X111757142Y-28271542D01*
X111757142Y-28271542D02*
X111814285Y-28385828D01*
X111814285Y-28385828D02*
X111814285Y-28500114D01*
X111814285Y-28500114D02*
X111757142Y-28614400D01*
X111757142Y-28614400D02*
X111700000Y-28671542D01*
X111700000Y-28671542D02*
X111585714Y-28728685D01*
X111585714Y-28728685D02*
X111357142Y-28785828D01*
X111357142Y-28785828D02*
X111242857Y-28842971D01*
X111242857Y-28842971D02*
X111185714Y-28900114D01*
X111185714Y-28900114D02*
X111128571Y-29014400D01*
X111128571Y-29014400D02*
X111128571Y-29128685D01*
X111128571Y-29128685D02*
X111185714Y-29242971D01*
X111185714Y-29242971D02*
X111242857Y-29300114D01*
X111242857Y-29300114D02*
X111357142Y-29357257D01*
X111357142Y-29357257D02*
X111642857Y-29357257D01*
X111642857Y-29357257D02*
X111814285Y-29300114D01*
X112214285Y-29357257D02*
X112499999Y-28157257D01*
X112499999Y-28157257D02*
X112728571Y-29014400D01*
X112728571Y-29014400D02*
X112957142Y-28157257D01*
X112957142Y-28157257D02*
X113242857Y-29357257D01*
X114328571Y-28157257D02*
X113642857Y-28157257D01*
X113985714Y-28157257D02*
X113985714Y-29357257D01*
X113985714Y-29357257D02*
X113871428Y-29185828D01*
X113871428Y-29185828D02*
X113757143Y-29071542D01*
X113757143Y-29071542D02*
X113642857Y-29014400D01*
X115471428Y-28157257D02*
X114785714Y-28157257D01*
X115128571Y-28157257D02*
X115128571Y-29357257D01*
X115128571Y-29357257D02*
X115014285Y-29185828D01*
X115014285Y-29185828D02*
X114900000Y-29071542D01*
X114900000Y-29071542D02*
X114785714Y-29014400D01*
X123828571Y-28214400D02*
X124000000Y-28157257D01*
X124000000Y-28157257D02*
X124285714Y-28157257D01*
X124285714Y-28157257D02*
X124400000Y-28214400D01*
X124400000Y-28214400D02*
X124457142Y-28271542D01*
X124457142Y-28271542D02*
X124514285Y-28385828D01*
X124514285Y-28385828D02*
X124514285Y-28500114D01*
X124514285Y-28500114D02*
X124457142Y-28614400D01*
X124457142Y-28614400D02*
X124400000Y-28671542D01*
X124400000Y-28671542D02*
X124285714Y-28728685D01*
X124285714Y-28728685D02*
X124057142Y-28785828D01*
X124057142Y-28785828D02*
X123942857Y-28842971D01*
X123942857Y-28842971D02*
X123885714Y-28900114D01*
X123885714Y-28900114D02*
X123828571Y-29014400D01*
X123828571Y-29014400D02*
X123828571Y-29128685D01*
X123828571Y-29128685D02*
X123885714Y-29242971D01*
X123885714Y-29242971D02*
X123942857Y-29300114D01*
X123942857Y-29300114D02*
X124057142Y-29357257D01*
X124057142Y-29357257D02*
X124342857Y-29357257D01*
X124342857Y-29357257D02*
X124514285Y-29300114D01*
X124914285Y-29357257D02*
X125199999Y-28157257D01*
X125199999Y-28157257D02*
X125428571Y-29014400D01*
X125428571Y-29014400D02*
X125657142Y-28157257D01*
X125657142Y-28157257D02*
X125942857Y-29357257D01*
X127028571Y-28157257D02*
X126342857Y-28157257D01*
X126685714Y-28157257D02*
X126685714Y-29357257D01*
X126685714Y-29357257D02*
X126571428Y-29185828D01*
X126571428Y-29185828D02*
X126457143Y-29071542D01*
X126457143Y-29071542D02*
X126342857Y-29014400D01*
X127485714Y-29242971D02*
X127542857Y-29300114D01*
X127542857Y-29300114D02*
X127657143Y-29357257D01*
X127657143Y-29357257D02*
X127942857Y-29357257D01*
X127942857Y-29357257D02*
X128057143Y-29300114D01*
X128057143Y-29300114D02*
X128114285Y-29242971D01*
X128114285Y-29242971D02*
X128171428Y-29128685D01*
X128171428Y-29128685D02*
X128171428Y-29014400D01*
X128171428Y-29014400D02*
X128114285Y-28842971D01*
X128114285Y-28842971D02*
X127428571Y-28157257D01*
X127428571Y-28157257D02*
X128171428Y-28157257D01*
X36714400Y-93599999D02*
X36657257Y-93428571D01*
X36657257Y-93428571D02*
X36657257Y-93142856D01*
X36657257Y-93142856D02*
X36714400Y-93028571D01*
X36714400Y-93028571D02*
X36771542Y-92971428D01*
X36771542Y-92971428D02*
X36885828Y-92914285D01*
X36885828Y-92914285D02*
X37000114Y-92914285D01*
X37000114Y-92914285D02*
X37114400Y-92971428D01*
X37114400Y-92971428D02*
X37171542Y-93028571D01*
X37171542Y-93028571D02*
X37228685Y-93142856D01*
X37228685Y-93142856D02*
X37285828Y-93371428D01*
X37285828Y-93371428D02*
X37342971Y-93485713D01*
X37342971Y-93485713D02*
X37400114Y-93542856D01*
X37400114Y-93542856D02*
X37514400Y-93599999D01*
X37514400Y-93599999D02*
X37628685Y-93599999D01*
X37628685Y-93599999D02*
X37742971Y-93542856D01*
X37742971Y-93542856D02*
X37800114Y-93485713D01*
X37800114Y-93485713D02*
X37857257Y-93371428D01*
X37857257Y-93371428D02*
X37857257Y-93085713D01*
X37857257Y-93085713D02*
X37800114Y-92914285D01*
X37857257Y-92514285D02*
X36657257Y-92228571D01*
X36657257Y-92228571D02*
X37514400Y-91999999D01*
X37514400Y-91999999D02*
X36657257Y-91771428D01*
X36657257Y-91771428D02*
X37857257Y-91485714D01*
X36657257Y-90971427D02*
X36657257Y-90742856D01*
X36657257Y-90742856D02*
X36714400Y-90628570D01*
X36714400Y-90628570D02*
X36771542Y-90571427D01*
X36771542Y-90571427D02*
X36942971Y-90457142D01*
X36942971Y-90457142D02*
X37171542Y-90399999D01*
X37171542Y-90399999D02*
X37628685Y-90399999D01*
X37628685Y-90399999D02*
X37742971Y-90457142D01*
X37742971Y-90457142D02*
X37800114Y-90514285D01*
X37800114Y-90514285D02*
X37857257Y-90628570D01*
X37857257Y-90628570D02*
X37857257Y-90857142D01*
X37857257Y-90857142D02*
X37800114Y-90971427D01*
X37800114Y-90971427D02*
X37742971Y-91028570D01*
X37742971Y-91028570D02*
X37628685Y-91085713D01*
X37628685Y-91085713D02*
X37342971Y-91085713D01*
X37342971Y-91085713D02*
X37228685Y-91028570D01*
X37228685Y-91028570D02*
X37171542Y-90971427D01*
X37171542Y-90971427D02*
X37114400Y-90857142D01*
X37114400Y-90857142D02*
X37114400Y-90628570D01*
X37114400Y-90628570D02*
X37171542Y-90514285D01*
X37171542Y-90514285D02*
X37228685Y-90457142D01*
X37228685Y-90457142D02*
X37342971Y-90399999D01*
X36714400Y-106299999D02*
X36657257Y-106128571D01*
X36657257Y-106128571D02*
X36657257Y-105842856D01*
X36657257Y-105842856D02*
X36714400Y-105728571D01*
X36714400Y-105728571D02*
X36771542Y-105671428D01*
X36771542Y-105671428D02*
X36885828Y-105614285D01*
X36885828Y-105614285D02*
X37000114Y-105614285D01*
X37000114Y-105614285D02*
X37114400Y-105671428D01*
X37114400Y-105671428D02*
X37171542Y-105728571D01*
X37171542Y-105728571D02*
X37228685Y-105842856D01*
X37228685Y-105842856D02*
X37285828Y-106071428D01*
X37285828Y-106071428D02*
X37342971Y-106185713D01*
X37342971Y-106185713D02*
X37400114Y-106242856D01*
X37400114Y-106242856D02*
X37514400Y-106299999D01*
X37514400Y-106299999D02*
X37628685Y-106299999D01*
X37628685Y-106299999D02*
X37742971Y-106242856D01*
X37742971Y-106242856D02*
X37800114Y-106185713D01*
X37800114Y-106185713D02*
X37857257Y-106071428D01*
X37857257Y-106071428D02*
X37857257Y-105785713D01*
X37857257Y-105785713D02*
X37800114Y-105614285D01*
X37857257Y-105214285D02*
X36657257Y-104928571D01*
X36657257Y-104928571D02*
X37514400Y-104699999D01*
X37514400Y-104699999D02*
X36657257Y-104471428D01*
X36657257Y-104471428D02*
X37857257Y-104185714D01*
X37342971Y-103557142D02*
X37400114Y-103671427D01*
X37400114Y-103671427D02*
X37457257Y-103728570D01*
X37457257Y-103728570D02*
X37571542Y-103785713D01*
X37571542Y-103785713D02*
X37628685Y-103785713D01*
X37628685Y-103785713D02*
X37742971Y-103728570D01*
X37742971Y-103728570D02*
X37800114Y-103671427D01*
X37800114Y-103671427D02*
X37857257Y-103557142D01*
X37857257Y-103557142D02*
X37857257Y-103328570D01*
X37857257Y-103328570D02*
X37800114Y-103214285D01*
X37800114Y-103214285D02*
X37742971Y-103157142D01*
X37742971Y-103157142D02*
X37628685Y-103099999D01*
X37628685Y-103099999D02*
X37571542Y-103099999D01*
X37571542Y-103099999D02*
X37457257Y-103157142D01*
X37457257Y-103157142D02*
X37400114Y-103214285D01*
X37400114Y-103214285D02*
X37342971Y-103328570D01*
X37342971Y-103328570D02*
X37342971Y-103557142D01*
X37342971Y-103557142D02*
X37285828Y-103671427D01*
X37285828Y-103671427D02*
X37228685Y-103728570D01*
X37228685Y-103728570D02*
X37114400Y-103785713D01*
X37114400Y-103785713D02*
X36885828Y-103785713D01*
X36885828Y-103785713D02*
X36771542Y-103728570D01*
X36771542Y-103728570D02*
X36714400Y-103671427D01*
X36714400Y-103671427D02*
X36657257Y-103557142D01*
X36657257Y-103557142D02*
X36657257Y-103328570D01*
X36657257Y-103328570D02*
X36714400Y-103214285D01*
X36714400Y-103214285D02*
X36771542Y-103157142D01*
X36771542Y-103157142D02*
X36885828Y-103099999D01*
X36885828Y-103099999D02*
X37114400Y-103099999D01*
X37114400Y-103099999D02*
X37228685Y-103157142D01*
X37228685Y-103157142D02*
X37285828Y-103214285D01*
X37285828Y-103214285D02*
X37342971Y-103328570D01*
X36714400Y-118999999D02*
X36657257Y-118828571D01*
X36657257Y-118828571D02*
X36657257Y-118542856D01*
X36657257Y-118542856D02*
X36714400Y-118428571D01*
X36714400Y-118428571D02*
X36771542Y-118371428D01*
X36771542Y-118371428D02*
X36885828Y-118314285D01*
X36885828Y-118314285D02*
X37000114Y-118314285D01*
X37000114Y-118314285D02*
X37114400Y-118371428D01*
X37114400Y-118371428D02*
X37171542Y-118428571D01*
X37171542Y-118428571D02*
X37228685Y-118542856D01*
X37228685Y-118542856D02*
X37285828Y-118771428D01*
X37285828Y-118771428D02*
X37342971Y-118885713D01*
X37342971Y-118885713D02*
X37400114Y-118942856D01*
X37400114Y-118942856D02*
X37514400Y-118999999D01*
X37514400Y-118999999D02*
X37628685Y-118999999D01*
X37628685Y-118999999D02*
X37742971Y-118942856D01*
X37742971Y-118942856D02*
X37800114Y-118885713D01*
X37800114Y-118885713D02*
X37857257Y-118771428D01*
X37857257Y-118771428D02*
X37857257Y-118485713D01*
X37857257Y-118485713D02*
X37800114Y-118314285D01*
X37857257Y-117914285D02*
X36657257Y-117628571D01*
X36657257Y-117628571D02*
X37514400Y-117399999D01*
X37514400Y-117399999D02*
X36657257Y-117171428D01*
X36657257Y-117171428D02*
X37857257Y-116885714D01*
X37857257Y-116542856D02*
X37857257Y-115742856D01*
X37857257Y-115742856D02*
X36657257Y-116257142D01*
D10*
X31545180Y-92742857D02*
X32021371Y-93076190D01*
X31545180Y-93314285D02*
X32545180Y-93314285D01*
X32545180Y-93314285D02*
X32545180Y-92933333D01*
X32545180Y-92933333D02*
X32497561Y-92838095D01*
X32497561Y-92838095D02*
X32449942Y-92790476D01*
X32449942Y-92790476D02*
X32354704Y-92742857D01*
X32354704Y-92742857D02*
X32211847Y-92742857D01*
X32211847Y-92742857D02*
X32116609Y-92790476D01*
X32116609Y-92790476D02*
X32068990Y-92838095D01*
X32068990Y-92838095D02*
X32021371Y-92933333D01*
X32021371Y-92933333D02*
X32021371Y-93314285D01*
X31545180Y-91790476D02*
X31545180Y-92361904D01*
X31545180Y-92076190D02*
X32545180Y-92076190D01*
X32545180Y-92076190D02*
X32402323Y-92171428D01*
X32402323Y-92171428D02*
X32307085Y-92266666D01*
X32307085Y-92266666D02*
X32259466Y-92361904D01*
X32545180Y-91171428D02*
X32545180Y-91076190D01*
X32545180Y-91076190D02*
X32497561Y-90980952D01*
X32497561Y-90980952D02*
X32449942Y-90933333D01*
X32449942Y-90933333D02*
X32354704Y-90885714D01*
X32354704Y-90885714D02*
X32164228Y-90838095D01*
X32164228Y-90838095D02*
X31926133Y-90838095D01*
X31926133Y-90838095D02*
X31735657Y-90885714D01*
X31735657Y-90885714D02*
X31640419Y-90933333D01*
X31640419Y-90933333D02*
X31592800Y-90980952D01*
X31592800Y-90980952D02*
X31545180Y-91076190D01*
X31545180Y-91076190D02*
X31545180Y-91171428D01*
X31545180Y-91171428D02*
X31592800Y-91266666D01*
X31592800Y-91266666D02*
X31640419Y-91314285D01*
X31640419Y-91314285D02*
X31735657Y-91361904D01*
X31735657Y-91361904D02*
X31926133Y-91409523D01*
X31926133Y-91409523D02*
X32164228Y-91409523D01*
X32164228Y-91409523D02*
X32354704Y-91361904D01*
X32354704Y-91361904D02*
X32449942Y-91314285D01*
X32449942Y-91314285D02*
X32497561Y-91266666D01*
X32497561Y-91266666D02*
X32545180Y-91171428D01*
X112649253Y-23045180D02*
X112315920Y-23521371D01*
X112077825Y-23045180D02*
X112077825Y-24045180D01*
X112077825Y-24045180D02*
X112458777Y-24045180D01*
X112458777Y-24045180D02*
X112554015Y-23997561D01*
X112554015Y-23997561D02*
X112601634Y-23949942D01*
X112601634Y-23949942D02*
X112649253Y-23854704D01*
X112649253Y-23854704D02*
X112649253Y-23711847D01*
X112649253Y-23711847D02*
X112601634Y-23616609D01*
X112601634Y-23616609D02*
X112554015Y-23568990D01*
X112554015Y-23568990D02*
X112458777Y-23521371D01*
X112458777Y-23521371D02*
X112077825Y-23521371D01*
X113601634Y-23045180D02*
X113030206Y-23045180D01*
X113315920Y-23045180D02*
X113315920Y-24045180D01*
X113315920Y-24045180D02*
X113220682Y-23902323D01*
X113220682Y-23902323D02*
X113125444Y-23807085D01*
X113125444Y-23807085D02*
X113030206Y-23759466D01*
X114458777Y-23711847D02*
X114458777Y-23045180D01*
X114220682Y-24092800D02*
X113982587Y-23378514D01*
X113982587Y-23378514D02*
X114601634Y-23378514D01*
X125349253Y-23045180D02*
X125015920Y-23521371D01*
X124777825Y-23045180D02*
X124777825Y-24045180D01*
X124777825Y-24045180D02*
X125158777Y-24045180D01*
X125158777Y-24045180D02*
X125254015Y-23997561D01*
X125254015Y-23997561D02*
X125301634Y-23949942D01*
X125301634Y-23949942D02*
X125349253Y-23854704D01*
X125349253Y-23854704D02*
X125349253Y-23711847D01*
X125349253Y-23711847D02*
X125301634Y-23616609D01*
X125301634Y-23616609D02*
X125254015Y-23568990D01*
X125254015Y-23568990D02*
X125158777Y-23521371D01*
X125158777Y-23521371D02*
X124777825Y-23521371D01*
X126301634Y-23045180D02*
X125730206Y-23045180D01*
X126015920Y-23045180D02*
X126015920Y-24045180D01*
X126015920Y-24045180D02*
X125920682Y-23902323D01*
X125920682Y-23902323D02*
X125825444Y-23807085D01*
X125825444Y-23807085D02*
X125730206Y-23759466D01*
X126634968Y-24045180D02*
X127254015Y-24045180D01*
X127254015Y-24045180D02*
X126920682Y-23664228D01*
X126920682Y-23664228D02*
X127063539Y-23664228D01*
X127063539Y-23664228D02*
X127158777Y-23616609D01*
X127158777Y-23616609D02*
X127206396Y-23568990D01*
X127206396Y-23568990D02*
X127254015Y-23473752D01*
X127254015Y-23473752D02*
X127254015Y-23235657D01*
X127254015Y-23235657D02*
X127206396Y-23140419D01*
X127206396Y-23140419D02*
X127158777Y-23092800D01*
X127158777Y-23092800D02*
X127063539Y-23045180D01*
X127063539Y-23045180D02*
X126777825Y-23045180D01*
X126777825Y-23045180D02*
X126682587Y-23092800D01*
X126682587Y-23092800D02*
X126634968Y-23140419D01*
X126066666Y-186454819D02*
X126399999Y-185978628D01*
X126638094Y-186454819D02*
X126638094Y-185454819D01*
X126638094Y-185454819D02*
X126257142Y-185454819D01*
X126257142Y-185454819D02*
X126161904Y-185502438D01*
X126161904Y-185502438D02*
X126114285Y-185550057D01*
X126114285Y-185550057D02*
X126066666Y-185645295D01*
X126066666Y-185645295D02*
X126066666Y-185788152D01*
X126066666Y-185788152D02*
X126114285Y-185883390D01*
X126114285Y-185883390D02*
X126161904Y-185931009D01*
X126161904Y-185931009D02*
X126257142Y-185978628D01*
X126257142Y-185978628D02*
X126638094Y-185978628D01*
X125590475Y-186454819D02*
X125399999Y-186454819D01*
X125399999Y-186454819D02*
X125304761Y-186407200D01*
X125304761Y-186407200D02*
X125257142Y-186359580D01*
X125257142Y-186359580D02*
X125161904Y-186216723D01*
X125161904Y-186216723D02*
X125114285Y-186026247D01*
X125114285Y-186026247D02*
X125114285Y-185645295D01*
X125114285Y-185645295D02*
X125161904Y-185550057D01*
X125161904Y-185550057D02*
X125209523Y-185502438D01*
X125209523Y-185502438D02*
X125304761Y-185454819D01*
X125304761Y-185454819D02*
X125495237Y-185454819D01*
X125495237Y-185454819D02*
X125590475Y-185502438D01*
X125590475Y-185502438D02*
X125638094Y-185550057D01*
X125638094Y-185550057D02*
X125685713Y-185645295D01*
X125685713Y-185645295D02*
X125685713Y-185883390D01*
X125685713Y-185883390D02*
X125638094Y-185978628D01*
X125638094Y-185978628D02*
X125590475Y-186026247D01*
X125590475Y-186026247D02*
X125495237Y-186073866D01*
X125495237Y-186073866D02*
X125304761Y-186073866D01*
X125304761Y-186073866D02*
X125209523Y-186026247D01*
X125209523Y-186026247D02*
X125161904Y-185978628D01*
X125161904Y-185978628D02*
X125114285Y-185883390D01*
X31545180Y-118142857D02*
X32021371Y-118476190D01*
X31545180Y-118714285D02*
X32545180Y-118714285D01*
X32545180Y-118714285D02*
X32545180Y-118333333D01*
X32545180Y-118333333D02*
X32497561Y-118238095D01*
X32497561Y-118238095D02*
X32449942Y-118190476D01*
X32449942Y-118190476D02*
X32354704Y-118142857D01*
X32354704Y-118142857D02*
X32211847Y-118142857D01*
X32211847Y-118142857D02*
X32116609Y-118190476D01*
X32116609Y-118190476D02*
X32068990Y-118238095D01*
X32068990Y-118238095D02*
X32021371Y-118333333D01*
X32021371Y-118333333D02*
X32021371Y-118714285D01*
X31545180Y-117190476D02*
X31545180Y-117761904D01*
X31545180Y-117476190D02*
X32545180Y-117476190D01*
X32545180Y-117476190D02*
X32402323Y-117571428D01*
X32402323Y-117571428D02*
X32307085Y-117666666D01*
X32307085Y-117666666D02*
X32259466Y-117761904D01*
X32449942Y-116809523D02*
X32497561Y-116761904D01*
X32497561Y-116761904D02*
X32545180Y-116666666D01*
X32545180Y-116666666D02*
X32545180Y-116428571D01*
X32545180Y-116428571D02*
X32497561Y-116333333D01*
X32497561Y-116333333D02*
X32449942Y-116285714D01*
X32449942Y-116285714D02*
X32354704Y-116238095D01*
X32354704Y-116238095D02*
X32259466Y-116238095D01*
X32259466Y-116238095D02*
X32116609Y-116285714D01*
X32116609Y-116285714D02*
X31545180Y-116857142D01*
X31545180Y-116857142D02*
X31545180Y-116238095D01*
X31545180Y-105442857D02*
X32021371Y-105776190D01*
X31545180Y-106014285D02*
X32545180Y-106014285D01*
X32545180Y-106014285D02*
X32545180Y-105633333D01*
X32545180Y-105633333D02*
X32497561Y-105538095D01*
X32497561Y-105538095D02*
X32449942Y-105490476D01*
X32449942Y-105490476D02*
X32354704Y-105442857D01*
X32354704Y-105442857D02*
X32211847Y-105442857D01*
X32211847Y-105442857D02*
X32116609Y-105490476D01*
X32116609Y-105490476D02*
X32068990Y-105538095D01*
X32068990Y-105538095D02*
X32021371Y-105633333D01*
X32021371Y-105633333D02*
X32021371Y-106014285D01*
X31545180Y-104490476D02*
X31545180Y-105061904D01*
X31545180Y-104776190D02*
X32545180Y-104776190D01*
X32545180Y-104776190D02*
X32402323Y-104871428D01*
X32402323Y-104871428D02*
X32307085Y-104966666D01*
X32307085Y-104966666D02*
X32259466Y-105061904D01*
X31545180Y-103538095D02*
X31545180Y-104109523D01*
X31545180Y-103823809D02*
X32545180Y-103823809D01*
X32545180Y-103823809D02*
X32402323Y-103919047D01*
X32402323Y-103919047D02*
X32307085Y-104014285D01*
X32307085Y-104014285D02*
X32259466Y-104109523D01*
X194954819Y-104157142D02*
X194478628Y-103823809D01*
X194954819Y-103585714D02*
X193954819Y-103585714D01*
X193954819Y-103585714D02*
X193954819Y-103966666D01*
X193954819Y-103966666D02*
X194002438Y-104061904D01*
X194002438Y-104061904D02*
X194050057Y-104109523D01*
X194050057Y-104109523D02*
X194145295Y-104157142D01*
X194145295Y-104157142D02*
X194288152Y-104157142D01*
X194288152Y-104157142D02*
X194383390Y-104109523D01*
X194383390Y-104109523D02*
X194431009Y-104061904D01*
X194431009Y-104061904D02*
X194478628Y-103966666D01*
X194478628Y-103966666D02*
X194478628Y-103585714D01*
X194954819Y-105109523D02*
X194954819Y-104538095D01*
X194954819Y-104823809D02*
X193954819Y-104823809D01*
X193954819Y-104823809D02*
X194097676Y-104728571D01*
X194097676Y-104728571D02*
X194192914Y-104633333D01*
X194192914Y-104633333D02*
X194240533Y-104538095D01*
X193954819Y-105442857D02*
X193954819Y-106109523D01*
X193954819Y-106109523D02*
X194954819Y-105680952D01*
X113366666Y-186454819D02*
X113699999Y-185978628D01*
X113938094Y-186454819D02*
X113938094Y-185454819D01*
X113938094Y-185454819D02*
X113557142Y-185454819D01*
X113557142Y-185454819D02*
X113461904Y-185502438D01*
X113461904Y-185502438D02*
X113414285Y-185550057D01*
X113414285Y-185550057D02*
X113366666Y-185645295D01*
X113366666Y-185645295D02*
X113366666Y-185788152D01*
X113366666Y-185788152D02*
X113414285Y-185883390D01*
X113414285Y-185883390D02*
X113461904Y-185931009D01*
X113461904Y-185931009D02*
X113557142Y-185978628D01*
X113557142Y-185978628D02*
X113938094Y-185978628D01*
X112795237Y-185883390D02*
X112890475Y-185835771D01*
X112890475Y-185835771D02*
X112938094Y-185788152D01*
X112938094Y-185788152D02*
X112985713Y-185692914D01*
X112985713Y-185692914D02*
X112985713Y-185645295D01*
X112985713Y-185645295D02*
X112938094Y-185550057D01*
X112938094Y-185550057D02*
X112890475Y-185502438D01*
X112890475Y-185502438D02*
X112795237Y-185454819D01*
X112795237Y-185454819D02*
X112604761Y-185454819D01*
X112604761Y-185454819D02*
X112509523Y-185502438D01*
X112509523Y-185502438D02*
X112461904Y-185550057D01*
X112461904Y-185550057D02*
X112414285Y-185645295D01*
X112414285Y-185645295D02*
X112414285Y-185692914D01*
X112414285Y-185692914D02*
X112461904Y-185788152D01*
X112461904Y-185788152D02*
X112509523Y-185835771D01*
X112509523Y-185835771D02*
X112604761Y-185883390D01*
X112604761Y-185883390D02*
X112795237Y-185883390D01*
X112795237Y-185883390D02*
X112890475Y-185931009D01*
X112890475Y-185931009D02*
X112938094Y-185978628D01*
X112938094Y-185978628D02*
X112985713Y-186073866D01*
X112985713Y-186073866D02*
X112985713Y-186264342D01*
X112985713Y-186264342D02*
X112938094Y-186359580D01*
X112938094Y-186359580D02*
X112890475Y-186407200D01*
X112890475Y-186407200D02*
X112795237Y-186454819D01*
X112795237Y-186454819D02*
X112604761Y-186454819D01*
X112604761Y-186454819D02*
X112509523Y-186407200D01*
X112509523Y-186407200D02*
X112461904Y-186359580D01*
X112461904Y-186359580D02*
X112414285Y-186264342D01*
X112414285Y-186264342D02*
X112414285Y-186073866D01*
X112414285Y-186073866D02*
X112461904Y-185978628D01*
X112461904Y-185978628D02*
X112509523Y-185931009D01*
X112509523Y-185931009D02*
X112604761Y-185883390D01*
X99965031Y-23045180D02*
X99631698Y-23521371D01*
X99393603Y-23045180D02*
X99393603Y-24045180D01*
X99393603Y-24045180D02*
X99774555Y-24045180D01*
X99774555Y-24045180D02*
X99869793Y-23997561D01*
X99869793Y-23997561D02*
X99917412Y-23949942D01*
X99917412Y-23949942D02*
X99965031Y-23854704D01*
X99965031Y-23854704D02*
X99965031Y-23711847D01*
X99965031Y-23711847D02*
X99917412Y-23616609D01*
X99917412Y-23616609D02*
X99869793Y-23568990D01*
X99869793Y-23568990D02*
X99774555Y-23521371D01*
X99774555Y-23521371D02*
X99393603Y-23521371D01*
X100917412Y-23045180D02*
X100345984Y-23045180D01*
X100631698Y-23045180D02*
X100631698Y-24045180D01*
X100631698Y-24045180D02*
X100536460Y-23902323D01*
X100536460Y-23902323D02*
X100441222Y-23807085D01*
X100441222Y-23807085D02*
X100345984Y-23759466D01*
X101822174Y-24045180D02*
X101345984Y-24045180D01*
X101345984Y-24045180D02*
X101298365Y-23568990D01*
X101298365Y-23568990D02*
X101345984Y-23616609D01*
X101345984Y-23616609D02*
X101441222Y-23664228D01*
X101441222Y-23664228D02*
X101679317Y-23664228D01*
X101679317Y-23664228D02*
X101774555Y-23616609D01*
X101774555Y-23616609D02*
X101822174Y-23568990D01*
X101822174Y-23568990D02*
X101869793Y-23473752D01*
X101869793Y-23473752D02*
X101869793Y-23235657D01*
X101869793Y-23235657D02*
X101822174Y-23140419D01*
X101822174Y-23140419D02*
X101774555Y-23092800D01*
X101774555Y-23092800D02*
X101679317Y-23045180D01*
X101679317Y-23045180D02*
X101441222Y-23045180D01*
X101441222Y-23045180D02*
X101345984Y-23092800D01*
X101345984Y-23092800D02*
X101298365Y-23140419D01*
X194954819Y-116857142D02*
X194478628Y-116523809D01*
X194954819Y-116285714D02*
X193954819Y-116285714D01*
X193954819Y-116285714D02*
X193954819Y-116666666D01*
X193954819Y-116666666D02*
X194002438Y-116761904D01*
X194002438Y-116761904D02*
X194050057Y-116809523D01*
X194050057Y-116809523D02*
X194145295Y-116857142D01*
X194145295Y-116857142D02*
X194288152Y-116857142D01*
X194288152Y-116857142D02*
X194383390Y-116809523D01*
X194383390Y-116809523D02*
X194431009Y-116761904D01*
X194431009Y-116761904D02*
X194478628Y-116666666D01*
X194478628Y-116666666D02*
X194478628Y-116285714D01*
X194954819Y-117809523D02*
X194954819Y-117238095D01*
X194954819Y-117523809D02*
X193954819Y-117523809D01*
X193954819Y-117523809D02*
X194097676Y-117428571D01*
X194097676Y-117428571D02*
X194192914Y-117333333D01*
X194192914Y-117333333D02*
X194240533Y-117238095D01*
X193954819Y-118666666D02*
X193954819Y-118476190D01*
X193954819Y-118476190D02*
X194002438Y-118380952D01*
X194002438Y-118380952D02*
X194050057Y-118333333D01*
X194050057Y-118333333D02*
X194192914Y-118238095D01*
X194192914Y-118238095D02*
X194383390Y-118190476D01*
X194383390Y-118190476D02*
X194764342Y-118190476D01*
X194764342Y-118190476D02*
X194859580Y-118238095D01*
X194859580Y-118238095D02*
X194907200Y-118285714D01*
X194907200Y-118285714D02*
X194954819Y-118380952D01*
X194954819Y-118380952D02*
X194954819Y-118571428D01*
X194954819Y-118571428D02*
X194907200Y-118666666D01*
X194907200Y-118666666D02*
X194859580Y-118714285D01*
X194859580Y-118714285D02*
X194764342Y-118761904D01*
X194764342Y-118761904D02*
X194526247Y-118761904D01*
X194526247Y-118761904D02*
X194431009Y-118714285D01*
X194431009Y-118714285D02*
X194383390Y-118666666D01*
X194383390Y-118666666D02*
X194335771Y-118571428D01*
X194335771Y-118571428D02*
X194335771Y-118380952D01*
X194335771Y-118380952D02*
X194383390Y-118285714D01*
X194383390Y-118285714D02*
X194431009Y-118238095D01*
X194431009Y-118238095D02*
X194526247Y-118190476D01*
X194954819Y-91457142D02*
X194478628Y-91123809D01*
X194954819Y-90885714D02*
X193954819Y-90885714D01*
X193954819Y-90885714D02*
X193954819Y-91266666D01*
X193954819Y-91266666D02*
X194002438Y-91361904D01*
X194002438Y-91361904D02*
X194050057Y-91409523D01*
X194050057Y-91409523D02*
X194145295Y-91457142D01*
X194145295Y-91457142D02*
X194288152Y-91457142D01*
X194288152Y-91457142D02*
X194383390Y-91409523D01*
X194383390Y-91409523D02*
X194431009Y-91361904D01*
X194431009Y-91361904D02*
X194478628Y-91266666D01*
X194478628Y-91266666D02*
X194478628Y-90885714D01*
X194954819Y-92409523D02*
X194954819Y-91838095D01*
X194954819Y-92123809D02*
X193954819Y-92123809D01*
X193954819Y-92123809D02*
X194097676Y-92028571D01*
X194097676Y-92028571D02*
X194192914Y-91933333D01*
X194192914Y-91933333D02*
X194240533Y-91838095D01*
X194383390Y-92980952D02*
X194335771Y-92885714D01*
X194335771Y-92885714D02*
X194288152Y-92838095D01*
X194288152Y-92838095D02*
X194192914Y-92790476D01*
X194192914Y-92790476D02*
X194145295Y-92790476D01*
X194145295Y-92790476D02*
X194050057Y-92838095D01*
X194050057Y-92838095D02*
X194002438Y-92885714D01*
X194002438Y-92885714D02*
X193954819Y-92980952D01*
X193954819Y-92980952D02*
X193954819Y-93171428D01*
X193954819Y-93171428D02*
X194002438Y-93266666D01*
X194002438Y-93266666D02*
X194050057Y-93314285D01*
X194050057Y-93314285D02*
X194145295Y-93361904D01*
X194145295Y-93361904D02*
X194192914Y-93361904D01*
X194192914Y-93361904D02*
X194288152Y-93314285D01*
X194288152Y-93314285D02*
X194335771Y-93266666D01*
X194335771Y-93266666D02*
X194383390Y-93171428D01*
X194383390Y-93171428D02*
X194383390Y-92980952D01*
X194383390Y-92980952D02*
X194431009Y-92885714D01*
X194431009Y-92885714D02*
X194478628Y-92838095D01*
X194478628Y-92838095D02*
X194573866Y-92790476D01*
X194573866Y-92790476D02*
X194764342Y-92790476D01*
X194764342Y-92790476D02*
X194859580Y-92838095D01*
X194859580Y-92838095D02*
X194907200Y-92885714D01*
X194907200Y-92885714D02*
X194954819Y-92980952D01*
X194954819Y-92980952D02*
X194954819Y-93171428D01*
X194954819Y-93171428D02*
X194907200Y-93266666D01*
X194907200Y-93266666D02*
X194859580Y-93314285D01*
X194859580Y-93314285D02*
X194764342Y-93361904D01*
X194764342Y-93361904D02*
X194573866Y-93361904D01*
X194573866Y-93361904D02*
X194478628Y-93314285D01*
X194478628Y-93314285D02*
X194431009Y-93266666D01*
X194431009Y-93266666D02*
X194383390Y-93171428D01*
X116121204Y-86350201D02*
X115616128Y-86855277D01*
X115616128Y-86855277D02*
X115548784Y-86989964D01*
X115548784Y-86989964D02*
X115548784Y-87124651D01*
X115548784Y-87124651D02*
X115616128Y-87259338D01*
X115616128Y-87259338D02*
X115683471Y-87326682D01*
X115750815Y-86114498D02*
X115750815Y-86047155D01*
X115750815Y-86047155D02*
X115717143Y-85946140D01*
X115717143Y-85946140D02*
X115548784Y-85777781D01*
X115548784Y-85777781D02*
X115447769Y-85744109D01*
X115447769Y-85744109D02*
X115380425Y-85744109D01*
X115380425Y-85744109D02*
X115279410Y-85777781D01*
X115279410Y-85777781D02*
X115212067Y-85845124D01*
X115212067Y-85845124D02*
X115144723Y-85979811D01*
X115144723Y-85979811D02*
X115144723Y-86787933D01*
X115144723Y-86787933D02*
X114706990Y-86350201D01*
X100666666Y-186454819D02*
X100999999Y-185978628D01*
X101238094Y-186454819D02*
X101238094Y-185454819D01*
X101238094Y-185454819D02*
X100857142Y-185454819D01*
X100857142Y-185454819D02*
X100761904Y-185502438D01*
X100761904Y-185502438D02*
X100714285Y-185550057D01*
X100714285Y-185550057D02*
X100666666Y-185645295D01*
X100666666Y-185645295D02*
X100666666Y-185788152D01*
X100666666Y-185788152D02*
X100714285Y-185883390D01*
X100714285Y-185883390D02*
X100761904Y-185931009D01*
X100761904Y-185931009D02*
X100857142Y-185978628D01*
X100857142Y-185978628D02*
X101238094Y-185978628D01*
X100333332Y-185454819D02*
X99666666Y-185454819D01*
X99666666Y-185454819D02*
X100095237Y-186454819D01*
X166241667Y-146004187D02*
X166106980Y-145936844D01*
X166106980Y-145936844D02*
X166039636Y-145936844D01*
X166039636Y-145936844D02*
X165938621Y-145970516D01*
X165938621Y-145970516D02*
X165837606Y-146071531D01*
X165837606Y-146071531D02*
X165803934Y-146172546D01*
X165803934Y-146172546D02*
X165803934Y-146239890D01*
X165803934Y-146239890D02*
X165837606Y-146340905D01*
X165837606Y-146340905D02*
X166106980Y-146610279D01*
X166106980Y-146610279D02*
X166814086Y-145903172D01*
X166814086Y-145903172D02*
X166578384Y-145667470D01*
X166578384Y-145667470D02*
X166477369Y-145633798D01*
X166477369Y-145633798D02*
X166410025Y-145633798D01*
X166410025Y-145633798D02*
X166309010Y-145667470D01*
X166309010Y-145667470D02*
X166241667Y-145734813D01*
X166241667Y-145734813D02*
X166207995Y-145835829D01*
X166207995Y-145835829D02*
X166207995Y-145903172D01*
X166207995Y-145903172D02*
X166241667Y-146004187D01*
X166241667Y-146004187D02*
X166477369Y-146239890D01*
X166174323Y-145263409D02*
X165702919Y-144792004D01*
X165702919Y-144792004D02*
X165467216Y-145970516D01*
X165467216Y-145970516D02*
X164995812Y-145499111D01*
X164356048Y-144859348D02*
X164760109Y-145263409D01*
X164558079Y-145061378D02*
X165265186Y-144354271D01*
X165265186Y-144354271D02*
X165231514Y-144522630D01*
X165231514Y-144522630D02*
X165231514Y-144657317D01*
X165231514Y-144657317D02*
X165265186Y-144758332D01*
%TO.C,R10*%
D12*
X29272936Y-91260680D02*
X29727064Y-91260680D01*
X29272936Y-92730680D02*
X29727064Y-92730680D01*
D10*
%TO.C,U2*%
X180626524Y-53990485D02*
X144210525Y-90406484D01*
X127593516Y-73789475D01*
X164009515Y-37373476D01*
X180626524Y-53990485D01*
%TO.C,R14*%
D12*
X112565000Y-20685436D02*
X112565000Y-21139564D01*
X114035000Y-20685436D02*
X114035000Y-21139564D01*
%TO.C,R13*%
X125265000Y-20685436D02*
X125265000Y-21139564D01*
X126735000Y-20685436D02*
X126735000Y-21139564D01*
%TO.C,R9*%
X125253849Y-188727064D02*
X125253849Y-188272936D01*
X126723849Y-188727064D02*
X126723849Y-188272936D01*
%TO.C,R12*%
X29272936Y-116660680D02*
X29727064Y-116660680D01*
X29272936Y-118130680D02*
X29727064Y-118130680D01*
%TO.C,R11*%
X29272936Y-103960680D02*
X29727064Y-103960680D01*
X29272936Y-105430680D02*
X29727064Y-105430680D01*
%TO.C,R17*%
X197227064Y-103960689D02*
X196772936Y-103960689D01*
X197227064Y-105430689D02*
X196772936Y-105430689D01*
%TO.C,R8*%
X112553849Y-188727064D02*
X112553849Y-188272936D01*
X114023849Y-188727064D02*
X114023849Y-188272936D01*
%TO.C,R15*%
X99872889Y-20685436D02*
X99872889Y-21139564D01*
X101342889Y-20685436D02*
X101342889Y-21139564D01*
%TO.C,R16*%
X197227064Y-116660689D02*
X196772936Y-116660689D01*
X197227064Y-118130689D02*
X196772936Y-118130689D01*
%TO.C,R18*%
X197227064Y-91260689D02*
X196772936Y-91260689D01*
X197227064Y-92730689D02*
X196772936Y-92730689D01*
%TO.C,J2*%
X117795317Y-86806479D02*
X119563084Y-85038712D01*
X119563084Y-85038712D02*
X120305546Y-85781174D01*
X119973205Y-91770369D02*
X117229631Y-89026795D01*
X122193521Y-91204683D02*
X123961288Y-89436916D01*
X123218826Y-88694454D02*
X123918861Y-87994419D01*
X123961288Y-89436916D02*
X123218826Y-88694454D01*
%TO.C,R7*%
X99853849Y-188727064D02*
X99853849Y-188272936D01*
X101323849Y-188727064D02*
X101323849Y-188272936D01*
%TO.C,BZ1*%
X166086144Y-153964823D02*
G75*
G02*
X163964824Y-156086143I-5586144J3464823D01*
G01*
X166730000Y-150500000D02*
G75*
G02*
X154270000Y-150500000I-6230000J0D01*
G01*
X154270000Y-150500000D02*
G75*
G02*
X166730000Y-150500000I6230000J0D01*
G01*
D10*
%TO.C,U3*%
X92654589Y-55417769D02*
X63917769Y-84154589D01*
X51345411Y-71582231D01*
X80082231Y-42845411D01*
X92654589Y-55417769D01*
%TD*%
M02*
